<?xml version="1.0" encoding="UTF-8"?>
<svg height="16px" viewBox="0 0 16 16" width="16px" xmlns="http://www.w3.org/2000/svg">
    <path d="m 14.015625 9.65625 c -0.730469 0 -1.996094 -0.359375 -3.695313 -1.042969 c 1.578126 -0.757812 2.835938 -1.152343 3.695313 -1.152343 c 0.929687 0 1.113281 0.414062 1.113281 1.136718 c 0 0.898438 -0.292968 1.058594 -1.113281 1.058594 z m -12.03125 -1.101562 c -0.929687 0 -1.109375 -0.417969 -1.109375 -1.136719 c 0 -0.902344 0.289062 -1.058594 1.109375 -1.058594 c 0.730469 0 2 0.355469 3.695313 1.039063 c -1.574219 0.757812 -2.835938 1.15625 -3.695313 1.15625 z m 12.03125 -1.96875 c -1.296875 0 -3.082031 0.722656 -4.742187 1.578124 l -1.605469 -0.820312 c 1.3125 -0.730469 2.453125 -1.472656 3.085937 -1.898438 l 0.289063 -0.191406 c 0.058593 -0.046875 0.09375 -0.113281 0.105469 -0.1875 c 0.007812 -0.074218 -0.011719 -0.152344 -0.058594 -0.210937 l -0.164063 -0.230469 c -0.09375 -0.132812 -0.253906 -0.179688 -0.359375 -0.101562 l -0.0625 0.039062 c -0.503906 0.34375 -1.699218 1.140625 -3.09375 1.925781 c -0.242187 0.136719 -0.476562 0.265625 -0.707031 0.390625 c -2.175781 -0.921875 -3.765625 -1.390625 -4.71875 -1.390625 c -0.917969 0 -1.984375 0.21875 -1.984375 1.929688 c 0 0.921875 0.34375 2.011719 1.984375 2.011719 c 1.300781 0 3.085937 -0.722657 4.742187 -1.578126 l 1.609376 0.820313 c -1.242188 0.6875 -2.332032 1.390625 -2.980469 1.824219 l -0.375 0.25 c -0.0625 0.046875 -0.105469 0.113281 -0.117188 0.191406 c -0.015625 0.074219 0.003907 0.15625 0.046875 0.21875 l 0.164063 0.230469 c 0.042969 0.0625 0.109375 0.109375 0.183593 0.121093 c 0.074219 0.015626 0.152344 0 0.214844 -0.042968 l 0.234375 -0.152344 c 0.582031 -0.394531 1.65625 -1.09375 2.882813 -1.785156 c 0.242187 -0.136719 0.476562 -0.269532 0.707031 -0.390625 c 2.179687 0.921875 3.765625 1.390625 4.71875 1.390625 c 0.917969 0 1.984375 -0.21875 1.984375 -1.929688 c 0 -0.921875 -0.34375 -2.011718 -1.984375 -2.011718" fill="#ee5a36"/>
</svg>
