<?xml version="1.0" encoding="UTF-8"?>
<svg height="128px" viewBox="0 0 128 128" width="128px" xmlns="http://www.w3.org/2000/svg" xmlns:xlink="http://www.w3.org/1999/xlink">
    <linearGradient id="a" gradientTransform="matrix(0.232143 0 0 0.328947 -8.566925 263.826965)" gradientUnits="userSpaceOnUse" x1="88.595886" x2="536.595886" y1="-449.394012" y2="-449.394012">
        <stop offset="0" stop-color="#deddda"/>
        <stop offset="0.0384615" stop-color="#f6f5f4"/>
        <stop offset="0.0768555" stop-color="#deddda"/>
        <stop offset="0.923077" stop-color="#deddda"/>
        <stop offset="0.961538" stop-color="#f6f5f4"/>
        <stop offset="1" stop-color="#deddda"/>
    </linearGradient>
    <path d="m 20 16 h 88 c 4.417969 0 8 3.582031 8 8 v 84 c 0 4.417969 -3.582031 8 -8 8 h -88 c -4.417969 0 -8 -3.582031 -8 -8 v -84 c 0 -4.417969 3.582031 -8 8 -8 z m 0 0" fill="url(#a)"/>
    <path d="m 20 12 h 88 c 4.417969 0 8 3.582031 8 8 v 84 c 0 4.417969 -3.582031 8 -8 8 h -88 c -4.417969 0 -8 -3.582031 -8 -8 v -84 c 0 -4.417969 3.582031 -8 8 -8 z m 0 0" fill="#f6f5f4"/>
    <path d="m 95.585938 59.140625 c -3.835938 0 -10.488282 -1.878906 -19.398438 -5.460937 c 8.273438 -3.988282 14.882812 -6.066407 19.398438 -6.066407 c 4.878906 0 5.835937 2.191407 5.835937 5.96875 c 0 4.71875 -1.527344 5.558594 -5.835937 5.558594 z m -63.164063 -5.78125 c -4.882813 0 -5.835937 -2.191406 -5.835937 -5.972656 c 0 -4.71875 1.53125 -5.554688 5.835937 -5.554688 c 3.832031 0 10.488281 1.871094 19.394531 5.460938 c -8.265625 3.988281 -14.878906 6.066406 -19.394531 6.066406 z m 63.164063 -10.335937 c -6.816407 0 -16.195313 3.796874 -24.902344 8.285156 l -8.433594 -4.296875 c 6.894531 -3.839844 12.886719 -7.746094 16.207031 -9.96875 l 1.507813 -1.015625 c 0.308594 -0.242188 0.511718 -0.597656 0.558594 -0.984375 c 0.046874 -0.390625 -0.058594 -0.78125 -0.300782 -1.09375 l -0.851562 -1.210938 c -0.496094 -0.699219 -1.347656 -0.953125 -1.894532 -0.539062 l -0.335937 0.214843 c -2.640625 1.800782 -8.910156 5.96875 -16.234375 10.105469 c -1.265625 0.714844 -2.5 1.394531 -3.714844 2.039063 c -11.429687 -4.832032 -19.761718 -7.300782 -24.769531 -7.300782 c -4.832031 0 -10.421875 1.148438 -10.421875 10.140626 c 0 4.832031 1.808594 10.554687 10.421875 10.554687 c 6.816406 0 16.191406 -3.789063 24.898437 -8.277344 l 8.441407 4.292969 c -6.519531 3.628906 -12.242188 7.320312 -15.640625 9.589844 l -1.964844 1.316406 c -0.332031 0.234375 -0.558594 0.59375 -0.628906 0.996094 c -0.070313 0.402344 0.019531 0.816406 0.253906 1.148437 l 0.859375 1.214844 c 0.222656 0.332031 0.570313 0.5625 0.964844 0.640625 c 0.390625 0.078125 0.800781 -0.003906 1.132812 -0.226562 l 1.226563 -0.8125 c 3.054687 -2.066407 8.683594 -5.734376 15.128906 -9.371094 c 1.265625 -0.71875 2.503906 -1.398438 3.714844 -2.046875 c 11.433594 4.832031 19.765625 7.308593 24.769531 7.308593 c 4.832031 0 10.421875 -1.15625 10.421875 -10.144531 c 0 -4.832031 -1.804688 -10.558593 -10.421875 -10.558593" fill="#ee5a36"/>
    <path d="m 66 76 c -1.101562 0 -2 0.898438 -2 2 v 17.171875 l -4.585938 -4.585937 c -0.375 -0.375 -0.882812 -0.585938 -1.414062 -0.585938 s -1.039062 0.210938 -1.414062 0.585938 c -0.78125 0.78125 -0.78125 2.046874 0 2.828124 l 8 8 c 0.78125 0.78125 2.046874 0.78125 2.828124 0 l 8 -8 c 0.78125 -0.78125 0.78125 -2.046874 0 -2.828124 s -2.046874 -0.78125 -2.828124 0 l -4.585938 4.585937 v -17.171875 c 0 -1.101562 -0.890625 -2 -2 -2 z m 0 0" fill="#c0bfbc"/>
</svg>
